<svg width="31" height="29" viewBox="0 0 31 29" fill="none" xmlns="http://www.w3.org/2000/svg">
<path d="M1.12128 1.00522H4.97295C5.65936 1.00522 6.00257 1.00522 6.26269 1.19004C6.5228 1.37486 6.63573 1.69895 6.86159 2.34714L8.15158 6.0493" stroke="#28485E" stroke-width="2" stroke-linecap="round"/>
<path d="M25.7273 22.8629H9.05187C7.91779 22.8629 7.35076 22.8629 7.05225 22.5253C7.00527 22.4722 6.96408 22.4142 6.92937 22.3524C6.7088 21.9594 6.89538 21.4239 7.26853 20.353V20.353C7.66901 19.2037 7.86925 18.629 8.30472 18.2721C8.37578 18.2138 8.45077 18.1605 8.52916 18.1126C9.00953 17.8188 9.61809 17.8188 10.8352 17.8188H20.4546" stroke="#28485E" stroke-width="2" stroke-linecap="round" stroke-linejoin="round"/>
<path d="M21.6998 17.8188H12.5002C11.2424 17.8188 10.6135 17.8188 10.1173 17.4974C9.62117 17.176 9.36404 16.6021 8.84979 15.4542L6.5299 10.2758C5.67644 8.37079 5.24972 7.41828 5.69311 6.73378C6.13651 6.04929 7.18024 6.04929 9.26771 6.04929H25.7136C28.0581 6.04929 29.2303 6.04929 29.6614 6.80896C30.0925 7.56863 29.4914 8.57499 28.2891 10.5877L25.1338 15.87C24.5653 16.8218 24.281 17.2977 23.8219 17.5582C23.3627 17.8188 22.8084 17.8188 21.6998 17.8188Z" stroke="#28485E" stroke-width="2" stroke-linecap="round"/>
<ellipse cx="24.8486" cy="27.0663" rx="1.75758" ry="1.68136" fill="#28485E"/>
<ellipse cx="10.788" cy="27.0663" rx="1.75758" ry="1.68136" fill="#28485E"/>
</svg>
