<svg width="18" height="21" viewBox="0 0 18 21" fill="none" xmlns="http://www.w3.org/2000/svg">
<path d="M1 1.31296H2.49324C3.17072 1.31296 3.50947 1.31296 3.76411 1.48628C3.80615 1.51489 3.84595 1.54668 3.88316 1.58135C4.10852 1.79134 4.18346 2.12169 4.33333 2.78238L4.55755 3.77079C4.6421 4.1435 4.68437 4.32986 4.74963 4.48726C5.01254 5.12134 5.58226 5.57629 6.25879 5.69241C6.42673 5.72124 6.61782 5.72124 7 5.72124V5.72124" stroke="white" stroke-width="2" stroke-linecap="round"/>
<path d="M15 15.6399H4.64329C4.37736 15.6399 4.24439 15.6399 4.14374 15.619C3.64687 15.5157 3.30613 15.0567 3.35114 14.5512C3.36026 14.4488 3.39876 14.3215 3.47575 14.067V14.067C3.56585 13.7691 3.6109 13.6201 3.67002 13.4926C3.95531 12.8771 4.53311 12.4482 5.2048 12.3533C5.34399 12.3337 5.4996 12.3337 5.81084 12.3337H11" stroke="white" stroke-width="2" stroke-linecap="round" stroke-linejoin="round"/>
<path d="M11.4223 12.3337H8.321C6.79642 12.3337 6.03413 12.3337 5.49249 11.9125C5.44052 11.872 5.39058 11.8291 5.34284 11.7837C4.84537 11.3112 4.73138 10.5574 4.50341 9.05001C4.27837 7.56195 4.16585 6.81792 4.55028 6.31281C4.5865 6.26521 4.62555 6.21982 4.66719 6.17689C5.10914 5.72125 5.86163 5.72125 7.3666 5.72125H13.8964C15.2944 5.72125 15.9934 5.72125 16.2888 6.17957C16.5841 6.63789 16.2953 7.27445 15.7177 8.54757L15.065 9.98631C14.5479 11.1261 14.2893 11.696 13.7945 12.0148C13.2998 12.3337 12.674 12.3337 11.4223 12.3337Z" stroke="white" stroke-width="2" stroke-linecap="round"/>
<ellipse cx="14" cy="18.9456" rx="1" ry="1.10162" fill="white"/>
<ellipse cx="6" cy="18.9456" rx="1" ry="1.10162" fill="white"/>
</svg>
