<svg width="26" height="27" viewBox="0 0 26 27" fill="none" xmlns="http://www.w3.org/2000/svg">
<path d="M1.32704 3.56741L2.21805 4.0214L1.32704 3.56741ZM1.76826 25.1612L2.47537 25.8683H2.47537L1.76826 25.1612ZM20.2001 19.9294V18.9294V19.9294ZM23.362 19.6024L23.816 20.4934H23.816L23.362 19.6024ZM24.6731 18.2914L23.7821 17.8374V17.8374L24.6731 18.2914ZM24.6731 3.56741L25.5641 3.11342V3.11342L24.6731 3.56741ZM23.362 2.25636L23.816 1.36536L23.816 1.36536L23.362 2.25636ZM2.63809 2.25636L3.09208 3.14737L2.63809 2.25636ZM6.70717 20.2223L6.00006 19.5152L6.70717 20.2223ZM7.41427 19.9294L7.41427 18.9294L7.41427 19.9294ZM2.00006 6.72938C2.00006 5.8728 2.00084 5.29051 2.03761 4.84042C2.07343 4.402 2.13836 4.1778 2.21805 4.0214L0.436035 3.11342C0.188744 3.59876 0.0901799 4.11546 0.0442547 4.67756C-0.000716686 5.22798 6.10352e-05 5.9058 6.10352e-05 6.72938H2.00006ZM2.00006 12.4294V6.72938H6.10352e-05V12.4294H2.00006ZM6.10352e-05 12.4294V19.9294H2.00006V12.4294H6.10352e-05ZM6.10352e-05 19.9294V24.843H2.00006V19.9294H6.10352e-05ZM6.10352e-05 24.843C6.10352e-05 26.1348 1.56192 26.7817 2.47537 25.8683L1.06115 24.4541C1.40763 24.1076 2.00006 24.353 2.00006 24.843H6.10352e-05ZM2.47537 25.8683L7.41427 20.9294L6.00006 19.5152L1.06115 24.4541L2.47537 25.8683ZM20.2001 18.9294L7.41427 18.9294L7.41427 20.9294L20.2001 20.9294V18.9294ZM22.908 18.7114C22.7516 18.7911 22.5274 18.856 22.089 18.8918C21.6389 18.9286 21.0566 18.9294 20.2001 18.9294V20.9294C21.0236 20.9294 21.7015 20.9302 22.2519 20.8852C22.814 20.8393 23.3307 20.7407 23.816 20.4934L22.908 18.7114ZM23.7821 17.8374C23.5903 18.2137 23.2844 18.5196 22.908 18.7114L23.816 20.4934C24.5687 20.1099 25.1806 19.498 25.5641 18.7453L23.7821 17.8374ZM24.0001 15.1294C24.0001 15.986 23.9993 16.5683 23.9625 17.0183C23.9267 17.4568 23.8618 17.681 23.7821 17.8374L25.5641 18.7453C25.8114 18.26 25.9099 17.7433 25.9559 17.1812C26.0008 16.6308 26.0001 15.953 26.0001 15.1294H24.0001ZM24.0001 6.72938V15.1294H26.0001V6.72938H24.0001ZM23.7821 4.0214C23.8618 4.1778 23.9267 4.402 23.9625 4.84042C23.9993 5.29051 24.0001 5.8728 24.0001 6.72938H26.0001C26.0001 5.9058 26.0008 5.22798 25.9559 4.67756C25.9099 4.11546 25.8114 3.59876 25.5641 3.11342L23.7821 4.0214ZM22.908 3.14737C23.2844 3.33912 23.5903 3.64508 23.7821 4.0214L25.5641 3.11342C25.1806 2.36077 24.5687 1.74885 23.816 1.36536L22.908 3.14737ZM20.2001 2.92938C21.0566 2.92938 21.6389 2.93016 22.089 2.96693C22.5274 3.00275 22.7516 3.06768 22.908 3.14737L23.816 1.36536C23.3307 1.11807 22.814 1.0195 22.2519 0.973576C21.7015 0.928605 21.0236 0.929382 20.2001 0.929382V2.92938ZM5.80006 2.92938H20.2001V0.929382H5.80006V2.92938ZM3.09208 3.14737C3.24848 3.06768 3.47268 3.00275 3.9111 2.96693C4.36119 2.93016 4.94348 2.92938 5.80006 2.92938V0.929382C4.97648 0.929382 4.29866 0.928605 3.74823 0.973576C3.18614 1.0195 2.66943 1.11807 2.1841 1.36536L3.09208 3.14737ZM2.21805 4.0214C2.40979 3.64508 2.71576 3.33912 3.09208 3.14737L2.1841 1.36536C1.43145 1.74885 0.819528 2.36077 0.436035 3.11342L2.21805 4.0214ZM7.41427 20.9294L7.41427 18.9294C6.88384 18.9294 6.37513 19.1401 6.00006 19.5152L7.41427 20.9294Z" fill="#28485E"/>
<path d="M7.00006 7.92938L19.0001 7.92938" stroke="#28485E" stroke-width="2" stroke-linecap="round" stroke-linejoin="round"/>
<path d="M7.00006 13.9294L14.5001 13.9294" stroke="#28485E" stroke-width="2" stroke-linecap="round" stroke-linejoin="round"/>
</svg>
